<?xml version="1.0" standalone="no"?><!DOCTYPE svg PUBLIC "-//W3C//DTD SVG 1.1//EN" "http://www.w3.org/Graphics/SVG/1.1/DTD/svg11.dtd"><svg t="1708669189406" class="icon" viewBox="0 0 1092 1024" version="1.1" xmlns="http://www.w3.org/2000/svg" p-id="24473" xmlns:xlink="http://www.w3.org/1999/xlink" width="51.1875" height="48"><path d="M861.7984 325.3248c0 178.3808-145.954133 322.9696-325.973333 322.9696-180.0192 0-325.973333-144.5888-325.973334-322.9696 0-178.346667 145.954133-322.901333 325.973334-322.901333 180.0192 0 325.973333 144.554667 325.973333 322.901333" fill="#F71A3B" p-id="24474"></path><path d="M651.946667 688.503467c0 178.346667-145.954133 322.901333-325.973334 322.901333-180.0192 0-325.973333-144.554667-325.973333-322.901333C0 510.1568 145.954133 365.568 325.973333 365.568c180.0192 0 325.973333 144.5888 325.973334 322.901333" fill="#FAA045" p-id="24475"></path><path d="M1074.926933 688.503467c0 178.346667-145.954133 322.901333-325.973333 322.901333-180.053333 0-325.973333-144.554667-325.973333-322.901333C422.980267 510.1568 568.900267 365.568 748.9536 365.568c180.0192 0 325.973333 144.5888 325.973333 322.901333" fill="#2BABF6" p-id="24476"></path><path d="M478.685867 643.822933a330.5472 330.5472 0 0 1-50.517334-13.243733c-21.265067 117.077333 24.098133 230.775467 109.226667 302.8992a320.955733 320.955733 0 0 0 109.329067-303.3088 327.338667 327.338667 0 0 1-168.0384 13.653333" fill="#578C23" p-id="24477"></path><path d="M807.0144 370.005333a327.4752 327.4752 0 0 0-269.653333 72.021334 323.345067 323.345067 0 0 1 109.2608 188.1088c105.949867-37.6832 189.303467-128.785067 210.8416-246.442667 0-0.136533 0-0.3072 0.068266-0.443733a330.581333 330.581333 0 0 0-50.517333-13.243734" fill="#564198" p-id="24478"></path><path d="M384.068267 369.902933a327.338667 327.338667 0 0 0-168.072534 13.687467 324.232533 324.232533 0 0 0 212.1728 246.920533l0.068267-0.443733a320.955733 320.955733 0 0 1 109.226667-188.074667 325.632 325.632 0 0 0-153.3952-72.0896" fill="#D1490C" p-id="24479"></path><path d="M428.2368 630.0672l-0.068267 0.443733c16.213333 5.666133 33.041067 10.103467 50.517334 13.243734a327.338667 327.338667 0 0 0 168.072533-13.653334 323.3792 323.3792 0 0 0-109.294933-188.142933 320.955733 320.955733 0 0 0-109.226667 188.074667" fill="#0F0F16" p-id="24480"></path></svg>